<mxfile host="app.diagrams.net" modified="2024-04-16T04:01:01.995Z" agent="Mozilla/5.0 (Windows NT 10.0; Win64; x64) AppleWebKit/537.36 (KHTML, like Gecko) Chrome/123.0.0.0 Safari/537.36" etag="5wiAIwaCW0BYeeKwJ3In" version="24.2.1" type="device">
  <diagram name="페이지-1" id="jttk0_HT5zJW0VtaVyBu">
    <mxGraphModel dx="4261" dy="2587" grid="1" gridSize="10" guides="1" tooltips="1" connect="1" arrows="1" fold="1" page="1" pageScale="1" pageWidth="827" pageHeight="1169" math="0" shadow="0">
      <root>
        <mxCell id="0" />
        <mxCell id="1" parent="0" />
        <mxCell id="lxtBIQyHMUyKDaU0BDtn-1" value="리스트 페이지 시작" style="strokeWidth=2;html=1;shape=mxgraph.flowchart.terminator;whiteSpace=wrap;fontSize=13;fontStyle=1" vertex="1" parent="1">
          <mxGeometry x="160" y="30" width="120" height="80" as="geometry" />
        </mxCell>
        <mxCell id="lxtBIQyHMUyKDaU0BDtn-3" value="예외 메세지 출력" style="shape=document;whiteSpace=wrap;html=1;boundedLbl=1;" vertex="1" parent="1">
          <mxGeometry x="530" y="1201" width="120" height="80" as="geometry" />
        </mxCell>
        <mxCell id="lxtBIQyHMUyKDaU0BDtn-4" value="DB 접속" style="rounded=0;whiteSpace=wrap;html=1;fontSize=15;fontStyle=1" vertex="1" parent="1">
          <mxGeometry x="160" y="177" width="120" height="60" as="geometry" />
        </mxCell>
        <mxCell id="lxtBIQyHMUyKDaU0BDtn-5" value="" style="endArrow=classic;html=1;rounded=0;" edge="1" parent="1">
          <mxGeometry width="50" height="50" relative="1" as="geometry">
            <mxPoint x="219.29" y="127" as="sourcePoint" />
            <mxPoint x="219.29" y="167" as="targetPoint" />
          </mxGeometry>
        </mxCell>
        <mxCell id="lxtBIQyHMUyKDaU0BDtn-45" value="" style="endArrow=classic;html=1;rounded=0;" edge="1" parent="1">
          <mxGeometry width="50" height="50" relative="1" as="geometry">
            <mxPoint x="221" y="250" as="sourcePoint" />
            <mxPoint x="221" y="290" as="targetPoint" />
          </mxGeometry>
        </mxCell>
        <mxCell id="lxtBIQyHMUyKDaU0BDtn-46" value="DB 접속&lt;div style=&quot;font-size: 15px;&quot;&gt;예외 발생&lt;/div&gt;" style="strokeWidth=2;html=1;shape=mxgraph.flowchart.decision;whiteSpace=wrap;fontSize=15;fontStyle=1" vertex="1" parent="1">
          <mxGeometry x="170" y="297" width="100" height="100" as="geometry" />
        </mxCell>
        <mxCell id="lxtBIQyHMUyKDaU0BDtn-86" value="&lt;span style=&quot;font-size: 25px;&quot;&gt;리스트 페이지 시작&lt;/span&gt;" style="strokeWidth=1;html=1;shape=mxgraph.flowchart.terminator;whiteSpace=wrap;" vertex="1" parent="1">
          <mxGeometry x="1960" y="840" width="226" height="100" as="geometry" />
        </mxCell>
        <mxCell id="lxtBIQyHMUyKDaU0BDtn-87" value="&lt;font style=&quot;font-size: 25px;&quot;&gt;DB 접속&lt;/font&gt;" style="rounded=0;whiteSpace=wrap;html=1;" vertex="1" parent="1">
          <mxGeometry x="1973" y="980" width="200" height="80" as="geometry" />
        </mxCell>
        <mxCell id="lxtBIQyHMUyKDaU0BDtn-88" value="" style="endArrow=classic;html=1;rounded=0;" edge="1" parent="1">
          <mxGeometry width="50" height="50" relative="1" as="geometry">
            <mxPoint x="2072.72" y="940" as="sourcePoint" />
            <mxPoint x="2072.96" y="980" as="targetPoint" />
          </mxGeometry>
        </mxCell>
        <mxCell id="lxtBIQyHMUyKDaU0BDtn-89" value="&lt;font style=&quot;font-size: 18px;&quot;&gt;DB&amp;nbsp; 접속&amp;nbsp;&lt;/font&gt;&lt;div style=&quot;font-size: 18px;&quot;&gt;&lt;font style=&quot;font-size: 18px;&quot;&gt;예외 발생&lt;/font&gt;&lt;/div&gt;" style="rhombus;whiteSpace=wrap;html=1;" vertex="1" parent="1">
          <mxGeometry x="2010" y="1071" width="126" height="130" as="geometry" />
        </mxCell>
        <mxCell id="lxtBIQyHMUyKDaU0BDtn-90" value="" style="endArrow=classic;html=1;rounded=0;exitX=0.5;exitY=1;exitDx=0;exitDy=0;entryX=0.5;entryY=0;entryDx=0;entryDy=0;" edge="1" parent="1" source="lxtBIQyHMUyKDaU0BDtn-87" target="lxtBIQyHMUyKDaU0BDtn-89">
          <mxGeometry width="50" height="50" relative="1" as="geometry">
            <mxPoint x="2079" y="1120" as="sourcePoint" />
            <mxPoint x="2129" y="1070" as="targetPoint" />
          </mxGeometry>
        </mxCell>
        <mxCell id="lxtBIQyHMUyKDaU0BDtn-91" value="&lt;font style=&quot;font-size: 16px;&quot;&gt;예외 메세지 출력&lt;/font&gt;" style="strokeWidth=1;html=1;shape=mxgraph.flowchart.document2;whiteSpace=wrap;size=0.25;" vertex="1" parent="1">
          <mxGeometry x="2370" y="1921" width="150" height="90" as="geometry" />
        </mxCell>
        <mxCell id="lxtBIQyHMUyKDaU0BDtn-92" value="&lt;span style=&quot;font-size: 25px;&quot;&gt;리스트 페이지 종료&lt;/span&gt;" style="strokeWidth=1;html=1;shape=mxgraph.flowchart.terminator;whiteSpace=wrap;" vertex="1" parent="1">
          <mxGeometry x="1960" y="2011" width="226" height="91" as="geometry" />
        </mxCell>
        <mxCell id="lxtBIQyHMUyKDaU0BDtn-93" value="" style="endArrow=classic;html=1;rounded=0;exitX=0.5;exitY=0.88;exitDx=0;exitDy=0;exitPerimeter=0;entryX=1;entryY=0.5;entryDx=0;entryDy=0;entryPerimeter=0;" edge="1" parent="1" source="lxtBIQyHMUyKDaU0BDtn-91" target="lxtBIQyHMUyKDaU0BDtn-92">
          <mxGeometry width="50" height="50" relative="1" as="geometry">
            <mxPoint x="2260" y="1650" as="sourcePoint" />
            <mxPoint x="2310" y="1600" as="targetPoint" />
            <Array as="points">
              <mxPoint x="2445" y="2057" />
            </Array>
          </mxGeometry>
        </mxCell>
        <mxCell id="lxtBIQyHMUyKDaU0BDtn-94" value="&lt;font style=&quot;font-size: 18px;&quot;&gt;페이지 정보 획득&lt;/font&gt;" style="shape=parallelogram;perimeter=parallelogramPerimeter;whiteSpace=wrap;html=1;fixedSize=1;" vertex="1" parent="1">
          <mxGeometry x="1860" y="1341" width="160" height="60" as="geometry" />
        </mxCell>
        <mxCell id="lxtBIQyHMUyKDaU0BDtn-95" value="&lt;font style=&quot;font-size: 15px;&quot;&gt;page 파라미터&lt;/font&gt;&lt;div style=&quot;font-size: 15px;&quot;&gt;&lt;font style=&quot;font-size: 15px;&quot;&gt;존재&lt;/font&gt;&lt;/div&gt;" style="rhombus;whiteSpace=wrap;html=1;" vertex="1" parent="1">
          <mxGeometry x="1973" y="1221" width="200" height="100" as="geometry" />
        </mxCell>
        <mxCell id="lxtBIQyHMUyKDaU0BDtn-96" value="" style="endArrow=classic;html=1;rounded=0;exitX=0;exitY=0.5;exitDx=0;exitDy=0;" edge="1" parent="1" source="lxtBIQyHMUyKDaU0BDtn-95">
          <mxGeometry relative="1" as="geometry">
            <mxPoint x="2030" y="1460" as="sourcePoint" />
            <mxPoint x="1930" y="1341" as="targetPoint" />
            <Array as="points">
              <mxPoint x="1930" y="1271" />
              <mxPoint x="1930" y="1321" />
            </Array>
          </mxGeometry>
        </mxCell>
        <mxCell id="lxtBIQyHMUyKDaU0BDtn-97" value="YES" style="edgeLabel;resizable=0;html=1;;align=center;verticalAlign=middle;" connectable="0" vertex="1" parent="lxtBIQyHMUyKDaU0BDtn-96">
          <mxGeometry relative="1" as="geometry">
            <mxPoint y="7" as="offset" />
          </mxGeometry>
        </mxCell>
        <mxCell id="lxtBIQyHMUyKDaU0BDtn-98" value="&lt;font style=&quot;font-size: 18px;&quot;&gt;1 획득&lt;/font&gt;" style="shape=parallelogram;perimeter=parallelogramPerimeter;whiteSpace=wrap;html=1;fixedSize=1;" vertex="1" parent="1">
          <mxGeometry x="2100" y="1341" width="160" height="60" as="geometry" />
        </mxCell>
        <mxCell id="lxtBIQyHMUyKDaU0BDtn-99" value="" style="endArrow=classic;html=1;rounded=0;exitX=1;exitY=0.5;exitDx=0;exitDy=0;entryX=0.683;entryY=0.044;entryDx=0;entryDy=0;entryPerimeter=0;" edge="1" parent="1" source="lxtBIQyHMUyKDaU0BDtn-95" target="lxtBIQyHMUyKDaU0BDtn-98">
          <mxGeometry relative="1" as="geometry">
            <mxPoint x="2030" y="1460" as="sourcePoint" />
            <mxPoint x="2130" y="1460" as="targetPoint" />
            <Array as="points">
              <mxPoint x="2210" y="1271" />
              <mxPoint x="2210" y="1330" />
            </Array>
          </mxGeometry>
        </mxCell>
        <mxCell id="lxtBIQyHMUyKDaU0BDtn-100" value="NO" style="edgeLabel;resizable=0;html=1;;align=center;verticalAlign=middle;" connectable="0" vertex="1" parent="lxtBIQyHMUyKDaU0BDtn-99">
          <mxGeometry relative="1" as="geometry" />
        </mxCell>
        <mxCell id="lxtBIQyHMUyKDaU0BDtn-101" value="" style="endArrow=classic;html=1;rounded=0;exitX=0.5;exitY=1;exitDx=0;exitDy=0;entryX=0.5;entryY=0;entryDx=0;entryDy=0;" edge="1" parent="1" source="lxtBIQyHMUyKDaU0BDtn-89" target="lxtBIQyHMUyKDaU0BDtn-95">
          <mxGeometry relative="1" as="geometry">
            <mxPoint x="2200" y="1420" as="sourcePoint" />
            <mxPoint x="2300" y="1420" as="targetPoint" />
          </mxGeometry>
        </mxCell>
        <mxCell id="lxtBIQyHMUyKDaU0BDtn-102" value="NO" style="edgeLabel;resizable=0;html=1;;align=center;verticalAlign=middle;" connectable="0" vertex="1" parent="lxtBIQyHMUyKDaU0BDtn-101">
          <mxGeometry relative="1" as="geometry" />
        </mxCell>
        <mxCell id="lxtBIQyHMUyKDaU0BDtn-103" value="" style="endArrow=classic;html=1;rounded=0;exitX=1;exitY=0.5;exitDx=0;exitDy=0;entryX=0.5;entryY=0;entryDx=0;entryDy=0;entryPerimeter=0;" edge="1" parent="1" source="lxtBIQyHMUyKDaU0BDtn-89" target="lxtBIQyHMUyKDaU0BDtn-91">
          <mxGeometry relative="1" as="geometry">
            <mxPoint x="2140" y="1165" as="sourcePoint" />
            <mxPoint x="2390" y="1210" as="targetPoint" />
            <Array as="points">
              <mxPoint x="2445" y="1136" />
            </Array>
          </mxGeometry>
        </mxCell>
        <mxCell id="lxtBIQyHMUyKDaU0BDtn-104" value="YES" style="edgeLabel;resizable=0;html=1;;align=center;verticalAlign=middle;" connectable="0" vertex="1" parent="lxtBIQyHMUyKDaU0BDtn-103">
          <mxGeometry relative="1" as="geometry" />
        </mxCell>
        <mxCell id="lxtBIQyHMUyKDaU0BDtn-105" value="&lt;font style=&quot;font-size: 15px;&quot;&gt;DB에서 게시글 수&amp;nbsp;&lt;/font&gt;&lt;span style=&quot;font-size: 15px; background-color: initial;&quot;&gt;획득&lt;/span&gt;" style="rounded=0;whiteSpace=wrap;html=1;" vertex="1" parent="1">
          <mxGeometry x="1994.5" y="1461" width="180" height="60" as="geometry" />
        </mxCell>
        <mxCell id="lxtBIQyHMUyKDaU0BDtn-106" value="" style="endArrow=classic;html=1;rounded=0;exitX=0.5;exitY=1;exitDx=0;exitDy=0;" edge="1" parent="1" source="lxtBIQyHMUyKDaU0BDtn-94">
          <mxGeometry width="50" height="50" relative="1" as="geometry">
            <mxPoint x="1980" y="1521" as="sourcePoint" />
            <mxPoint x="2080" y="1461" as="targetPoint" />
            <Array as="points">
              <mxPoint x="1940" y="1441" />
              <mxPoint x="2080" y="1441" />
            </Array>
          </mxGeometry>
        </mxCell>
        <mxCell id="lxtBIQyHMUyKDaU0BDtn-107" value="&lt;span style=&quot;font-size: 15px;&quot;&gt;페이지 관련 설정 세팅&lt;/span&gt;" style="rounded=0;whiteSpace=wrap;html=1;" vertex="1" parent="1">
          <mxGeometry x="1993" y="1640" width="180" height="60" as="geometry" />
        </mxCell>
        <mxCell id="lxtBIQyHMUyKDaU0BDtn-108" value="&lt;span style=&quot;font-size: 15px;&quot;&gt;DB에서 게시글 조회&lt;/span&gt;" style="rounded=0;whiteSpace=wrap;html=1;" vertex="1" parent="1">
          <mxGeometry x="1993" y="1720" width="180" height="60" as="geometry" />
        </mxCell>
        <mxCell id="lxtBIQyHMUyKDaU0BDtn-109" value="" style="endArrow=classic;html=1;rounded=0;exitX=0.484;exitY=1.002;exitDx=0;exitDy=0;exitPerimeter=0;" edge="1" parent="1" source="lxtBIQyHMUyKDaU0BDtn-107">
          <mxGeometry width="50" height="50" relative="1" as="geometry">
            <mxPoint x="2070" y="1840" as="sourcePoint" />
            <mxPoint x="2080" y="1720" as="targetPoint" />
          </mxGeometry>
        </mxCell>
        <mxCell id="lxtBIQyHMUyKDaU0BDtn-110" value="화면에 출력" style="strokeWidth=1;html=1;shape=mxgraph.flowchart.document2;whiteSpace=wrap;size=0.25;" vertex="1" parent="1">
          <mxGeometry x="1991.5" y="1911" width="183" height="60" as="geometry" />
        </mxCell>
        <mxCell id="lxtBIQyHMUyKDaU0BDtn-111" value="" style="endArrow=classic;html=1;rounded=0;entryX=0.529;entryY=-0.003;entryDx=0;entryDy=0;entryPerimeter=0;exitX=0.482;exitY=0.889;exitDx=0;exitDy=0;exitPerimeter=0;" edge="1" parent="1" source="lxtBIQyHMUyKDaU0BDtn-110" target="lxtBIQyHMUyKDaU0BDtn-92">
          <mxGeometry width="50" height="50" relative="1" as="geometry">
            <mxPoint x="1990" y="1810" as="sourcePoint" />
            <mxPoint x="2040" y="1760" as="targetPoint" />
          </mxGeometry>
        </mxCell>
        <mxCell id="lxtBIQyHMUyKDaU0BDtn-112" value="게시글 수 획득&lt;div&gt;예외 발생&lt;/div&gt;" style="rhombus;whiteSpace=wrap;html=1;" vertex="1" parent="1">
          <mxGeometry x="2003" y="1531" width="160" height="80" as="geometry" />
        </mxCell>
        <mxCell id="lxtBIQyHMUyKDaU0BDtn-113" value="" style="endArrow=classic;html=1;rounded=0;exitX=0.5;exitY=1;exitDx=0;exitDy=0;" edge="1" parent="1" source="lxtBIQyHMUyKDaU0BDtn-105" target="lxtBIQyHMUyKDaU0BDtn-112">
          <mxGeometry width="50" height="50" relative="1" as="geometry">
            <mxPoint x="2100" y="1751" as="sourcePoint" />
            <mxPoint x="2150" y="1701" as="targetPoint" />
          </mxGeometry>
        </mxCell>
        <mxCell id="lxtBIQyHMUyKDaU0BDtn-114" value="" style="endArrow=classic;html=1;rounded=0;exitX=1;exitY=0.5;exitDx=0;exitDy=0;entryX=0.5;entryY=0;entryDx=0;entryDy=0;entryPerimeter=0;" edge="1" parent="1" source="lxtBIQyHMUyKDaU0BDtn-112" target="lxtBIQyHMUyKDaU0BDtn-91">
          <mxGeometry relative="1" as="geometry">
            <mxPoint x="2120" y="1621" as="sourcePoint" />
            <mxPoint x="2220" y="1621" as="targetPoint" />
            <Array as="points">
              <mxPoint x="2445" y="1571" />
            </Array>
          </mxGeometry>
        </mxCell>
        <mxCell id="lxtBIQyHMUyKDaU0BDtn-115" value="YES" style="edgeLabel;resizable=0;html=1;;align=center;verticalAlign=middle;" connectable="0" vertex="1" parent="lxtBIQyHMUyKDaU0BDtn-114">
          <mxGeometry relative="1" as="geometry">
            <mxPoint x="-205" y="-34" as="offset" />
          </mxGeometry>
        </mxCell>
        <mxCell id="lxtBIQyHMUyKDaU0BDtn-116" value="" style="endArrow=classic;html=1;rounded=0;exitX=0.5;exitY=1;exitDx=0;exitDy=0;entryX=0.5;entryY=0;entryDx=0;entryDy=0;" edge="1" parent="1" source="lxtBIQyHMUyKDaU0BDtn-112" target="lxtBIQyHMUyKDaU0BDtn-107">
          <mxGeometry relative="1" as="geometry">
            <mxPoint x="2120" y="1621" as="sourcePoint" />
            <mxPoint x="2220" y="1621" as="targetPoint" />
          </mxGeometry>
        </mxCell>
        <mxCell id="lxtBIQyHMUyKDaU0BDtn-117" value="NO" style="edgeLabel;resizable=0;html=1;;align=center;verticalAlign=middle;" connectable="0" vertex="1" parent="lxtBIQyHMUyKDaU0BDtn-116">
          <mxGeometry relative="1" as="geometry">
            <mxPoint y="-5" as="offset" />
          </mxGeometry>
        </mxCell>
        <mxCell id="lxtBIQyHMUyKDaU0BDtn-118" value="게시글 수 획득&lt;div&gt;예외 발생&lt;/div&gt;" style="rhombus;whiteSpace=wrap;html=1;" vertex="1" parent="1">
          <mxGeometry x="2003" y="1801" width="160" height="80" as="geometry" />
        </mxCell>
        <mxCell id="lxtBIQyHMUyKDaU0BDtn-119" value="" style="endArrow=classic;html=1;rounded=0;exitX=0.5;exitY=1;exitDx=0;exitDy=0;" edge="1" parent="1" source="lxtBIQyHMUyKDaU0BDtn-108" target="lxtBIQyHMUyKDaU0BDtn-118">
          <mxGeometry width="50" height="50" relative="1" as="geometry">
            <mxPoint x="2130" y="1761" as="sourcePoint" />
            <mxPoint x="2180" y="1711" as="targetPoint" />
          </mxGeometry>
        </mxCell>
        <mxCell id="lxtBIQyHMUyKDaU0BDtn-120" value="" style="endArrow=classic;html=1;rounded=0;exitX=1;exitY=0.5;exitDx=0;exitDy=0;entryX=0.5;entryY=0;entryDx=0;entryDy=0;entryPerimeter=0;" edge="1" parent="1" source="lxtBIQyHMUyKDaU0BDtn-118" target="lxtBIQyHMUyKDaU0BDtn-91">
          <mxGeometry relative="1" as="geometry">
            <mxPoint x="2100" y="1881" as="sourcePoint" />
            <mxPoint x="2200" y="1881" as="targetPoint" />
            <Array as="points">
              <mxPoint x="2445" y="1841" />
            </Array>
          </mxGeometry>
        </mxCell>
        <mxCell id="lxtBIQyHMUyKDaU0BDtn-121" value="YES" style="edgeLabel;resizable=0;html=1;;align=center;verticalAlign=middle;" connectable="0" vertex="1" parent="lxtBIQyHMUyKDaU0BDtn-120">
          <mxGeometry relative="1" as="geometry">
            <mxPoint x="-104" as="offset" />
          </mxGeometry>
        </mxCell>
        <mxCell id="lxtBIQyHMUyKDaU0BDtn-122" value="" style="endArrow=classic;html=1;rounded=0;exitX=0.5;exitY=1;exitDx=0;exitDy=0;" edge="1" parent="1" source="lxtBIQyHMUyKDaU0BDtn-118" target="lxtBIQyHMUyKDaU0BDtn-110">
          <mxGeometry relative="1" as="geometry">
            <mxPoint x="2090" y="1931" as="sourcePoint" />
            <mxPoint x="2190" y="1931" as="targetPoint" />
          </mxGeometry>
        </mxCell>
        <mxCell id="lxtBIQyHMUyKDaU0BDtn-123" value="NO" style="edgeLabel;resizable=0;html=1;;align=center;verticalAlign=middle;" connectable="0" vertex="1" parent="lxtBIQyHMUyKDaU0BDtn-122">
          <mxGeometry relative="1" as="geometry">
            <mxPoint y="-5" as="offset" />
          </mxGeometry>
        </mxCell>
        <mxCell id="lxtBIQyHMUyKDaU0BDtn-124" value="" style="endArrow=classic;html=1;rounded=0;exitX=1;exitY=0.5;exitDx=0;exitDy=0;" edge="1" parent="1">
          <mxGeometry relative="1" as="geometry">
            <mxPoint x="280" y="210" as="sourcePoint" />
            <mxPoint x="590" y="1200" as="targetPoint" />
            <Array as="points">
              <mxPoint x="589" y="210" />
            </Array>
          </mxGeometry>
        </mxCell>
        <mxCell id="lxtBIQyHMUyKDaU0BDtn-125" value="YES" style="edgeLabel;resizable=0;html=1;;align=center;verticalAlign=middle;" connectable="0" vertex="1" parent="lxtBIQyHMUyKDaU0BDtn-124">
          <mxGeometry relative="1" as="geometry" />
        </mxCell>
        <mxCell id="lxtBIQyHMUyKDaU0BDtn-130" value="&lt;span style=&quot;font-size: 18px;&quot;&gt;GET 파라미터&lt;/span&gt;&lt;div&gt;&lt;span style=&quot;font-size: 18px;&quot;&gt;획득&lt;/span&gt;&lt;/div&gt;" style="shape=parallelogram;perimeter=parallelogramPerimeter;whiteSpace=wrap;html=1;fixedSize=1;" vertex="1" parent="1">
          <mxGeometry x="8" y="537" width="160" height="60" as="geometry" />
        </mxCell>
        <mxCell id="lxtBIQyHMUyKDaU0BDtn-131" value="&lt;font style=&quot;font-size: 15px;&quot;&gt;&amp;nbsp;파라미터&lt;/font&gt;&lt;div style=&quot;font-size: 15px;&quot;&gt;&lt;font style=&quot;font-size: 15px;&quot;&gt;존재&lt;/font&gt;&lt;/div&gt;" style="rhombus;whiteSpace=wrap;html=1;" vertex="1" parent="1">
          <mxGeometry x="123" y="417" width="200" height="100" as="geometry" />
        </mxCell>
        <mxCell id="lxtBIQyHMUyKDaU0BDtn-132" value="" style="endArrow=classic;html=1;rounded=0;exitX=0;exitY=0.5;exitDx=0;exitDy=0;" edge="1" parent="1">
          <mxGeometry relative="1" as="geometry">
            <mxPoint x="121" y="467" as="sourcePoint" />
            <mxPoint x="78" y="537" as="targetPoint" />
            <Array as="points">
              <mxPoint x="78" y="467" />
              <mxPoint x="78" y="517" />
            </Array>
          </mxGeometry>
        </mxCell>
        <mxCell id="lxtBIQyHMUyKDaU0BDtn-134" value="&lt;span style=&quot;font-size: 18px;&quot;&gt;POST 파라미터&lt;/span&gt;&lt;div&gt;&lt;span style=&quot;font-size: 18px;&quot;&gt;획득&lt;/span&gt;&lt;/div&gt;" style="shape=parallelogram;perimeter=parallelogramPerimeter;whiteSpace=wrap;html=1;fixedSize=1;" vertex="1" parent="1">
          <mxGeometry x="248" y="537" width="160" height="60" as="geometry" />
        </mxCell>
        <mxCell id="lxtBIQyHMUyKDaU0BDtn-135" value="" style="endArrow=classic;html=1;rounded=0;exitX=1;exitY=0.5;exitDx=0;exitDy=0;entryX=0.683;entryY=0.044;entryDx=0;entryDy=0;entryPerimeter=0;" edge="1" target="lxtBIQyHMUyKDaU0BDtn-134" parent="1">
          <mxGeometry relative="1" as="geometry">
            <mxPoint x="321" y="467" as="sourcePoint" />
            <mxPoint x="278" y="656" as="targetPoint" />
            <Array as="points">
              <mxPoint x="358" y="467" />
              <mxPoint x="358" y="526" />
            </Array>
          </mxGeometry>
        </mxCell>
        <mxCell id="lxtBIQyHMUyKDaU0BDtn-137" value="" style="endArrow=classic;html=1;rounded=0;exitX=0.5;exitY=1;exitDx=0;exitDy=0;entryX=0.5;entryY=0;entryDx=0;entryDy=0;" edge="1" target="lxtBIQyHMUyKDaU0BDtn-131" parent="1">
          <mxGeometry relative="1" as="geometry">
            <mxPoint x="223" y="397" as="sourcePoint" />
            <mxPoint x="450" y="616" as="targetPoint" />
          </mxGeometry>
        </mxCell>
        <mxCell id="lxtBIQyHMUyKDaU0BDtn-138" value="NO" style="edgeLabel;resizable=0;html=1;;align=center;verticalAlign=middle;" connectable="0" vertex="1" parent="lxtBIQyHMUyKDaU0BDtn-137">
          <mxGeometry relative="1" as="geometry" />
        </mxCell>
        <mxCell id="lxtBIQyHMUyKDaU0BDtn-139" value="NO" style="edgeLabel;resizable=0;html=1;;align=center;verticalAlign=middle;" connectable="0" vertex="1" parent="lxtBIQyHMUyKDaU0BDtn-137">
          <mxGeometry relative="1" as="geometry">
            <mxPoint x="-1854" y="-785" as="offset" />
          </mxGeometry>
        </mxCell>
        <mxCell id="lxtBIQyHMUyKDaU0BDtn-142" value="" style="endArrow=classic;html=1;rounded=0;" edge="1" parent="1">
          <mxGeometry width="50" height="50" relative="1" as="geometry">
            <mxPoint x="78" y="597" as="sourcePoint" />
            <mxPoint x="78" y="667" as="targetPoint" />
          </mxGeometry>
        </mxCell>
        <mxCell id="lxtBIQyHMUyKDaU0BDtn-144" value="달력생성" style="rounded=0;whiteSpace=wrap;html=1;fontSize=15;fontStyle=1" vertex="1" parent="1">
          <mxGeometry x="20" y="670" width="120" height="60" as="geometry" />
        </mxCell>
        <mxCell id="lxtBIQyHMUyKDaU0BDtn-145" value="" style="endArrow=classic;html=1;rounded=0;" edge="1" parent="1">
          <mxGeometry width="50" height="50" relative="1" as="geometry">
            <mxPoint x="79" y="730" as="sourcePoint" />
            <mxPoint x="79" y="800" as="targetPoint" />
          </mxGeometry>
        </mxCell>
        <mxCell id="lxtBIQyHMUyKDaU0BDtn-146" value="DB에서 게시글 조회" style="rounded=0;whiteSpace=wrap;html=1;fontSize=15;fontStyle=1" vertex="1" parent="1">
          <mxGeometry x="20" y="800" width="120" height="60" as="geometry" />
        </mxCell>
        <mxCell id="lxtBIQyHMUyKDaU0BDtn-147" value="" style="endArrow=classic;html=1;rounded=0;" edge="1" parent="1">
          <mxGeometry width="50" height="50" relative="1" as="geometry">
            <mxPoint x="79" y="860" as="sourcePoint" />
            <mxPoint x="79" y="930" as="targetPoint" />
          </mxGeometry>
        </mxCell>
        <mxCell id="lxtBIQyHMUyKDaU0BDtn-148" value="게시글 획득&lt;div&gt;예외 발생&lt;/div&gt;" style="strokeWidth=2;html=1;shape=mxgraph.flowchart.decision;whiteSpace=wrap;fontSize=15;fontStyle=1" vertex="1" parent="1">
          <mxGeometry x="20" y="931" width="120" height="100" as="geometry" />
        </mxCell>
        <mxCell id="lxtBIQyHMUyKDaU0BDtn-149" value="" style="endArrow=classic;html=1;rounded=0;exitX=0;exitY=0.5;exitDx=0;exitDy=0;" edge="1" parent="1">
          <mxGeometry relative="1" as="geometry">
            <mxPoint x="20" y="980" as="sourcePoint" />
            <mxPoint x="-23" y="1050" as="targetPoint" />
            <Array as="points">
              <mxPoint x="-23" y="980" />
              <mxPoint x="-23" y="1030" />
            </Array>
          </mxGeometry>
        </mxCell>
        <mxCell id="lxtBIQyHMUyKDaU0BDtn-150" value="YES" style="edgeLabel;resizable=0;html=1;;align=center;verticalAlign=middle;" connectable="0" vertex="1" parent="lxtBIQyHMUyKDaU0BDtn-149">
          <mxGeometry relative="1" as="geometry">
            <mxPoint y="7" as="offset" />
          </mxGeometry>
        </mxCell>
        <mxCell id="lxtBIQyHMUyKDaU0BDtn-151" value="예외 메세지 출력" style="shape=document;whiteSpace=wrap;html=1;boundedLbl=1;" vertex="1" parent="1">
          <mxGeometry x="-80" y="1050" width="120" height="80" as="geometry" />
        </mxCell>
        <mxCell id="lxtBIQyHMUyKDaU0BDtn-153" value="" style="endArrow=none;html=1;rounded=0;" edge="1" parent="1">
          <mxGeometry width="50" height="50" relative="1" as="geometry">
            <mxPoint x="-21" y="1119" as="sourcePoint" />
            <mxPoint x="-21" y="1400" as="targetPoint" />
          </mxGeometry>
        </mxCell>
        <mxCell id="lxtBIQyHMUyKDaU0BDtn-157" value="" style="endArrow=classic;html=1;rounded=0;exitX=1;exitY=0.74;exitDx=0;exitDy=0;exitPerimeter=0;" edge="1" parent="1">
          <mxGeometry relative="1" as="geometry">
            <mxPoint x="141" y="982" as="sourcePoint" />
            <mxPoint x="161" y="1052" as="targetPoint" />
            <Array as="points">
              <mxPoint x="161" y="982" />
              <mxPoint x="161" y="1032" />
            </Array>
          </mxGeometry>
        </mxCell>
        <mxCell id="lxtBIQyHMUyKDaU0BDtn-158" value="NO" style="edgeLabel;resizable=0;html=1;;align=center;verticalAlign=middle;" connectable="0" vertex="1" parent="lxtBIQyHMUyKDaU0BDtn-157">
          <mxGeometry relative="1" as="geometry">
            <mxPoint y="7" as="offset" />
          </mxGeometry>
        </mxCell>
        <mxCell id="lxtBIQyHMUyKDaU0BDtn-159" value="화면 출력" style="shape=document;whiteSpace=wrap;html=1;boundedLbl=1;" vertex="1" parent="1">
          <mxGeometry x="100" y="1050" width="120" height="80" as="geometry" />
        </mxCell>
        <mxCell id="lxtBIQyHMUyKDaU0BDtn-160" value="" style="endArrow=classic;html=1;rounded=0;" edge="1" parent="1">
          <mxGeometry width="50" height="50" relative="1" as="geometry">
            <mxPoint x="-20" y="1400" as="sourcePoint" />
            <mxPoint x="100" y="1399.75" as="targetPoint" />
          </mxGeometry>
        </mxCell>
        <mxCell id="lxtBIQyHMUyKDaU0BDtn-162" value="리스트 페이지 종료" style="strokeWidth=2;html=1;shape=mxgraph.flowchart.terminator;whiteSpace=wrap;fontSize=13;fontStyle=1" vertex="1" parent="1">
          <mxGeometry x="110" y="1370" width="120" height="80" as="geometry" />
        </mxCell>
        <mxCell id="lxtBIQyHMUyKDaU0BDtn-164" value="" style="endArrow=none;html=1;rounded=0;" edge="1" parent="1">
          <mxGeometry width="50" height="50" relative="1" as="geometry">
            <mxPoint x="600" y="1400" as="sourcePoint" />
            <mxPoint x="600" y="1260" as="targetPoint" />
          </mxGeometry>
        </mxCell>
        <mxCell id="lxtBIQyHMUyKDaU0BDtn-166" value="" style="endArrow=classic;html=1;rounded=0;" edge="1" parent="1">
          <mxGeometry width="50" height="50" relative="1" as="geometry">
            <mxPoint x="600" y="1400" as="sourcePoint" />
            <mxPoint x="230" y="1399.75" as="targetPoint" />
          </mxGeometry>
        </mxCell>
        <mxCell id="lxtBIQyHMUyKDaU0BDtn-167" value="DB 접속&amp;nbsp;&lt;div&gt;예외 발생&lt;/div&gt;" style="strokeWidth=2;html=1;shape=mxgraph.flowchart.decision;whiteSpace=wrap;fontSize=15;fontStyle=1" vertex="1" parent="1">
          <mxGeometry x="295" y="860" width="120" height="100" as="geometry" />
        </mxCell>
        <mxCell id="lxtBIQyHMUyKDaU0BDtn-169" value="" style="endArrow=classic;html=1;rounded=0;" edge="1" parent="1">
          <mxGeometry relative="1" as="geometry">
            <mxPoint x="415" y="773.85" as="sourcePoint" />
            <mxPoint x="589" y="773.47" as="targetPoint" />
          </mxGeometry>
        </mxCell>
        <mxCell id="lxtBIQyHMUyKDaU0BDtn-170" value="YES" style="edgeLabel;resizable=0;html=1;;align=center;verticalAlign=middle;" connectable="0" vertex="1" parent="lxtBIQyHMUyKDaU0BDtn-169">
          <mxGeometry relative="1" as="geometry" />
        </mxCell>
        <mxCell id="lxtBIQyHMUyKDaU0BDtn-174" value="" style="endArrow=classic;html=1;rounded=0;exitX=0;exitY=0.5;exitDx=0;exitDy=0;entryX=1;entryY=0.5;entryDx=0;entryDy=0;" edge="1" parent="1" source="lxtBIQyHMUyKDaU0BDtn-134" target="lxtBIQyHMUyKDaU0BDtn-144">
          <mxGeometry width="50" height="50" relative="1" as="geometry">
            <mxPoint x="168" y="600" as="sourcePoint" />
            <mxPoint x="168" y="670" as="targetPoint" />
          </mxGeometry>
        </mxCell>
        <mxCell id="lxtBIQyHMUyKDaU0BDtn-183" value="리스트 업데이트&lt;div&gt;처리&lt;/div&gt;" style="rounded=0;whiteSpace=wrap;html=1;fontSize=15;fontStyle=1" vertex="1" parent="1">
          <mxGeometry x="294" y="640" width="120" height="60" as="geometry" />
        </mxCell>
        <mxCell id="lxtBIQyHMUyKDaU0BDtn-187" value="" style="endArrow=classic;html=1;rounded=0;" edge="1" parent="1">
          <mxGeometry width="50" height="50" relative="1" as="geometry">
            <mxPoint x="350" y="597" as="sourcePoint" />
            <mxPoint x="350" y="640" as="targetPoint" />
          </mxGeometry>
        </mxCell>
        <mxCell id="lxtBIQyHMUyKDaU0BDtn-188" value="" style="endArrow=classic;html=1;rounded=0;" edge="1" parent="1">
          <mxGeometry width="50" height="50" relative="1" as="geometry">
            <mxPoint x="353.23" y="700" as="sourcePoint" />
            <mxPoint x="353.23" y="743" as="targetPoint" />
          </mxGeometry>
        </mxCell>
        <mxCell id="lxtBIQyHMUyKDaU0BDtn-189" value="DB 접속" style="rounded=0;whiteSpace=wrap;html=1;fontSize=15;fontStyle=1" vertex="1" parent="1">
          <mxGeometry x="294" y="744" width="120" height="60" as="geometry" />
        </mxCell>
        <mxCell id="lxtBIQyHMUyKDaU0BDtn-204" value="" style="endArrow=classic;html=1;rounded=0;" edge="1" parent="1">
          <mxGeometry relative="1" as="geometry">
            <mxPoint x="355.37999999999994" y="807" as="sourcePoint" />
            <mxPoint x="355.37999999999994" y="856.6199999999999" as="targetPoint" />
          </mxGeometry>
        </mxCell>
        <mxCell id="lxtBIQyHMUyKDaU0BDtn-205" value="NO" style="edgeLabel;resizable=0;html=1;;align=center;verticalAlign=middle;" connectable="0" vertex="1" parent="lxtBIQyHMUyKDaU0BDtn-204">
          <mxGeometry relative="1" as="geometry" />
        </mxCell>
        <mxCell id="lxtBIQyHMUyKDaU0BDtn-208" value="&lt;span style=&quot;font-size: 18px;&quot;&gt;파라미터&amp;nbsp;&lt;/span&gt;&lt;div&gt;&lt;span style=&quot;font-size: 18px;&quot;&gt;획득&lt;/span&gt;&lt;/div&gt;" style="shape=parallelogram;perimeter=parallelogramPerimeter;whiteSpace=wrap;html=1;fixedSize=1;" vertex="1" parent="1">
          <mxGeometry x="280" y="1009" width="160" height="60" as="geometry" />
        </mxCell>
        <mxCell id="lxtBIQyHMUyKDaU0BDtn-214" value="" style="endArrow=classic;html=1;rounded=0;" edge="1" parent="1">
          <mxGeometry width="50" height="50" relative="1" as="geometry">
            <mxPoint x="355.75" y="964" as="sourcePoint" />
            <mxPoint x="355.75" y="1007" as="targetPoint" />
          </mxGeometry>
        </mxCell>
        <mxCell id="lxtBIQyHMUyKDaU0BDtn-216" value="" style="endArrow=classic;html=1;rounded=0;" edge="1" parent="1">
          <mxGeometry width="50" height="50" relative="1" as="geometry">
            <mxPoint x="358.38" y="1075" as="sourcePoint" />
            <mxPoint x="358.38" y="1118" as="targetPoint" />
          </mxGeometry>
        </mxCell>
        <mxCell id="lxtBIQyHMUyKDaU0BDtn-217" value="파라미터&amp;nbsp;&lt;div&gt;예외 발생&lt;/div&gt;" style="strokeWidth=2;html=1;shape=mxgraph.flowchart.decision;whiteSpace=wrap;fontSize=15;fontStyle=1" vertex="1" parent="1">
          <mxGeometry x="300" y="1121" width="120" height="100" as="geometry" />
        </mxCell>
        <mxCell id="lxtBIQyHMUyKDaU0BDtn-218" value="" style="endArrow=classic;html=1;rounded=0;" edge="1" parent="1">
          <mxGeometry relative="1" as="geometry">
            <mxPoint x="420" y="1168.38" as="sourcePoint" />
            <mxPoint x="594" y="1168" as="targetPoint" />
          </mxGeometry>
        </mxCell>
        <mxCell id="lxtBIQyHMUyKDaU0BDtn-219" value="YES" style="edgeLabel;resizable=0;html=1;;align=center;verticalAlign=middle;" connectable="0" vertex="1" parent="lxtBIQyHMUyKDaU0BDtn-218">
          <mxGeometry relative="1" as="geometry" />
        </mxCell>
        <mxCell id="lxtBIQyHMUyKDaU0BDtn-220" value="" style="endArrow=classic;html=1;rounded=0;" edge="1" parent="1">
          <mxGeometry relative="1" as="geometry">
            <mxPoint x="359.36999999999995" y="1221" as="sourcePoint" />
            <mxPoint x="359.36999999999995" y="1270.62" as="targetPoint" />
          </mxGeometry>
        </mxCell>
        <mxCell id="lxtBIQyHMUyKDaU0BDtn-221" value="NO" style="edgeLabel;resizable=0;html=1;;align=center;verticalAlign=middle;" connectable="0" vertex="1" parent="lxtBIQyHMUyKDaU0BDtn-220">
          <mxGeometry relative="1" as="geometry" />
        </mxCell>
        <mxCell id="lxtBIQyHMUyKDaU0BDtn-222" value="location&lt;div&gt;이전 페이지로&amp;nbsp;&lt;/div&gt;&lt;div&gt;이동&lt;/div&gt;" style="rounded=0;whiteSpace=wrap;html=1;fontSize=15;fontStyle=1" vertex="1" parent="1">
          <mxGeometry x="300" y="1280" width="120" height="60" as="geometry" />
        </mxCell>
        <mxCell id="lxtBIQyHMUyKDaU0BDtn-223" value="" style="endArrow=classic;html=1;rounded=0;" edge="1" parent="1">
          <mxGeometry width="50" height="50" relative="1" as="geometry">
            <mxPoint x="358.38" y="1350.5" as="sourcePoint" />
            <mxPoint x="358.38" y="1393.5" as="targetPoint" />
          </mxGeometry>
        </mxCell>
        <mxCell id="lxtBIQyHMUyKDaU0BDtn-224" value="" style="endArrow=classic;html=1;rounded=0;exitX=0.598;exitY=0.787;exitDx=0;exitDy=0;exitPerimeter=0;" edge="1" parent="1" source="lxtBIQyHMUyKDaU0BDtn-159">
          <mxGeometry width="50" height="50" relative="1" as="geometry">
            <mxPoint x="170" y="1140" as="sourcePoint" />
            <mxPoint x="170" y="1360" as="targetPoint" />
          </mxGeometry>
        </mxCell>
      </root>
    </mxGraphModel>
  </diagram>
</mxfile>
